<svg width="151" height="42" viewBox="0 0 151 42" fill="none" xmlns="http://www.w3.org/2000/svg">
<path d="M0 34.4834L10.4647 23.8649H0V18.2329H10.4647V7.5166H16.9593V17.4703L27.5203 7.5166H36L25.7281 17.9396H36V24.5493H25.6317V34.4834H18.848V24.1582L9.05782 34.4834H0Z" fill="#14A077"/>
<path d="M49.17 33V29.25H50.46C51.42 29.25 52.18 28.98 52.74 28.44C53.32 27.88 53.61 27.14 53.61 26.22V10.65H57.72V26.07C57.72 27.45 57.42 28.66 56.82 29.7C56.24 30.74 55.4 31.55 54.3 32.13C53.22 32.71 51.94 33 50.46 33H49.17ZM69.5873 33.36C67.9873 33.36 66.5273 32.99 65.2073 32.25C63.9073 31.51 62.8673 30.5 62.0873 29.22C61.3273 27.94 60.9473 26.48 60.9473 24.84C60.9473 23.2 61.3273 21.74 62.0873 20.46C62.8673 19.18 63.9073 18.17 65.2073 17.43C66.5073 16.69 67.9673 16.32 69.5873 16.32C71.1873 16.32 72.6373 16.69 73.9373 17.43C75.2373 18.17 76.2673 19.18 77.0273 20.46C77.8073 21.72 78.1973 23.18 78.1973 24.84C78.1973 26.48 77.8073 27.94 77.0273 29.22C76.2473 30.5 75.2073 31.51 73.9073 32.25C72.6073 32.99 71.1673 33.36 69.5873 33.36ZM69.5873 29.76C70.4673 29.76 71.2373 29.55 71.8973 29.13C72.5773 28.71 73.1073 28.13 73.4873 27.39C73.8873 26.63 74.0873 25.78 74.0873 24.84C74.0873 23.88 73.8873 23.04 73.4873 22.32C73.1073 21.58 72.5773 21 71.8973 20.58C71.2373 20.14 70.4673 19.92 69.5873 19.92C68.6873 19.92 67.8973 20.14 67.2173 20.58C66.5373 21 65.9973 21.58 65.5973 22.32C65.2173 23.04 65.0273 23.88 65.0273 24.84C65.0273 25.78 65.2173 26.63 65.5973 27.39C65.9973 28.13 66.5373 28.71 67.2173 29.13C67.8973 29.55 68.6873 29.76 69.5873 29.76ZM90.0877 33.36C88.9077 33.36 87.8177 33.13 86.8177 32.67C85.8377 32.19 85.0577 31.51 84.4777 30.63L84.8677 29.85V33H81.1777V10.29H85.1077V19.92L84.5077 19.11C85.0677 18.23 85.8277 17.55 86.7877 17.07C87.7477 16.57 88.8577 16.32 90.1177 16.32C91.6577 16.32 93.0477 16.7 94.2877 17.46C95.5277 18.22 96.5077 19.24 97.2277 20.52C97.9677 21.8 98.3377 23.24 98.3377 24.84C98.3377 26.42 97.9777 27.86 97.2577 29.16C96.5377 30.46 95.5577 31.49 94.3177 32.25C93.0777 32.99 91.6677 33.36 90.0877 33.36ZM89.6377 29.76C90.5377 29.76 91.3377 29.55 92.0377 29.13C92.7377 28.71 93.2777 28.13 93.6577 27.39C94.0577 26.65 94.2577 25.8 94.2577 24.84C94.2577 23.88 94.0577 23.04 93.6577 22.32C93.2777 21.58 92.7377 21 92.0377 20.58C91.3377 20.14 90.5377 19.92 89.6377 19.92C88.7777 19.92 87.9977 20.13 87.2977 20.55C86.6177 20.97 86.0777 21.56 85.6777 22.32C85.2977 23.06 85.1077 23.9 85.1077 24.84C85.1077 25.8 85.2977 26.65 85.6777 27.39C86.0777 28.13 86.6177 28.71 87.2977 29.13C87.9977 29.55 88.7777 29.76 89.6377 29.76ZM101.334 33V16.68H105.264V33H101.334ZM101.334 14.85V10.65H105.264V14.85H101.334ZM115.103 33.36C113.363 33.36 111.843 32.95 110.543 32.13C109.263 31.29 108.383 30.16 107.903 28.74L110.843 27.33C111.263 28.25 111.843 28.97 112.583 29.49C113.343 30.01 114.183 30.27 115.103 30.27C115.823 30.27 116.393 30.11 116.813 29.79C117.233 29.47 117.443 29.05 117.443 28.53C117.443 28.21 117.353 27.95 117.173 27.75C117.013 27.53 116.783 27.35 116.483 27.21C116.203 27.05 115.893 26.92 115.553 26.82L112.883 26.07C111.503 25.67 110.453 25.06 109.733 24.24C109.033 23.42 108.683 22.45 108.683 21.33C108.683 20.33 108.933 19.46 109.433 18.72C109.953 17.96 110.663 17.37 111.563 16.95C112.483 16.53 113.533 16.32 114.713 16.32C116.253 16.32 117.613 16.69 118.793 17.43C119.973 18.17 120.813 19.21 121.313 20.55L118.313 21.96C118.033 21.22 117.563 20.63 116.903 20.19C116.243 19.75 115.503 19.53 114.683 19.53C114.023 19.53 113.503 19.68 113.123 19.98C112.743 20.28 112.553 20.67 112.553 21.15C112.553 21.45 112.633 21.71 112.793 21.93C112.953 22.15 113.173 22.33 113.453 22.47C113.753 22.61 114.093 22.74 114.473 22.86L117.083 23.64C118.423 24.04 119.453 24.64 120.173 25.44C120.913 26.24 121.283 27.22 121.283 28.38C121.283 29.36 121.023 30.23 120.503 30.99C119.983 31.73 119.263 32.31 118.343 32.73C117.423 33.15 116.343 33.36 115.103 33.36ZM131.743 33.18C129.903 33.18 128.473 32.68 127.453 31.68C126.453 30.66 125.953 29.23 125.953 27.39V20.19H123.133V16.68H123.433C124.233 16.68 124.853 16.47 125.293 16.05C125.733 15.63 125.953 15.02 125.953 14.22V12.96H129.883V16.68H133.633V20.19H129.883V27.18C129.883 27.72 129.973 28.18 130.153 28.56C130.353 28.94 130.653 29.23 131.053 29.43C131.473 29.63 132.003 29.73 132.643 29.73C132.783 29.73 132.943 29.72 133.123 29.7C133.323 29.68 133.513 29.66 133.693 29.64V33C133.413 33.04 133.093 33.08 132.733 33.12C132.373 33.16 132.043 33.18 131.743 33.18ZM141.587 33.36C140.447 33.36 139.457 33.17 138.617 32.79C137.777 32.41 137.127 31.87 136.667 31.17C136.207 30.45 135.977 29.62 135.977 28.68C135.977 27.78 136.177 26.98 136.577 26.28C136.977 25.56 137.597 24.96 138.437 24.48C139.277 24 140.337 23.66 141.617 23.46L146.957 22.59V25.59L142.367 26.37C141.587 26.51 141.007 26.76 140.627 27.12C140.247 27.48 140.057 27.95 140.057 28.53C140.057 29.09 140.267 29.54 140.687 29.88C141.127 30.2 141.667 30.36 142.307 30.36C143.127 30.36 143.847 30.19 144.467 29.85C145.107 29.49 145.597 29 145.937 28.38C146.297 27.76 146.477 27.08 146.477 26.34V22.14C146.477 21.44 146.197 20.86 145.637 20.4C145.097 19.92 144.377 19.68 143.477 19.68C142.637 19.68 141.887 19.91 141.227 20.37C140.587 20.81 140.117 21.4 139.817 22.14L136.607 20.58C136.927 19.72 137.427 18.98 138.107 18.36C138.807 17.72 139.627 17.22 140.567 16.86C141.507 16.5 142.527 16.32 143.627 16.32C144.967 16.32 146.147 16.57 147.167 17.07C148.187 17.55 148.977 18.23 149.537 19.11C150.117 19.97 150.407 20.98 150.407 22.14V33H146.687V30.21L147.527 30.15C147.107 30.85 146.607 31.44 146.027 31.92C145.447 32.38 144.787 32.74 144.047 33C143.307 33.24 142.487 33.36 141.587 33.36Z" fill="#121212"/>
</svg>
